# xmcd CD database file
#
# Track frame offsets:
#       150
#       5610
#       20458
#       35629
#       46953
#       51353
#       65691
#       80203
#       90764
#       104560
#       120580
#       137775
#       152198
#       168359
#
# Disc length: 2469 seconds
#
# Revision: 0
# Processed by: cddbd v1.5.2PL0 Copyright (c) Steve Scherf et al.
# Submitted via: jack 3.1.1
#
DISCID=bb09a30e
DTITLE=Ridan - Madame la République
DYEAR=2012
DGENRE=Chanson française
TTITLE0=Le Petit Malandrin
TTITLE1=La Comédie Humaine
TTITLE2=Madame La République
TTITLE3=Les Enfants de Colonies
TTITLE4=Un Etrange Etranger
TTITLE5=Ah Les Salauds !
TTITLE6=Le Syndrome du Petit Beur
TTITLE7=Le Mensonger
TTITLE8=Le Manège Enchanté
TTITLE9=Le Mont des Lys
TTITLE10=Ali Baba Et Les 40 Valeurs
TTITLE11=La Fleur Au Fusil
TTITLE12=Imo Pectore
TTITLE13=L'Indigné
EXTD=
EXTT0=
EXTT1=
EXTT2=
EXTT3=
EXTT4=
EXTT5=
EXTT6=
EXTT7=
EXTT8=
EXTT9=
EXTT10=
EXTT11=
EXTT12=
EXTT13=
PLAYORDER=
